<svg xmlns="http://www.w3.org/2000/svg" width="395" height="130" viewBox="0 0 395 130">
<g>
<path d="M 38.34 90.25 C30.75,81.59 21.24,71.01 17.20,66.74 C12.86,62.15 9.99,58.29 10.18,57.31 C10.36,56.39 14.95,52.95 20.39,49.67 C26.20,46.16 28.99,44.40 31.40,44.82 C33.79,45.24 35.81,47.82 40.04,53.00 C42.96,56.58 47.55,61.75 50.23,64.50 L 55.11 69.50 L 57.14 67.00 C70.53,50.44 97.20,22.36 106.02,15.52 C111.34,11.39 111.88,11.21 120.27,10.67 C123.15,10.49 125.70,10.42 127.30,10.45 C127.11,10.74 127.00,11.13 127.00,11.56 C127.00,12.18 127.24,12.58 127.58,12.61 C127.23,13.01 126.83,13.44 126.41,13.87 C122.77,17.57 113.56,29.13 106.49,38.85 C103.20,43.38 98.03,50.44 95.00,54.53 C91.97,58.62 88.38,63.56 87.00,65.51 C82.26,72.23 76.12,80.51 73.56,83.64 C72.15,85.36 71.00,87.26 71.00,87.85 C71.00,88.90 65.27,96.12 59.16,102.75 C57.52,104.54 55.27,106.00 54.16,106.00 C52.82,106.00 47.58,100.78 38.34,90.25 ZM 93.64 104.79 C92.25,106.19 89.58,106.56 79.08,106.83 C64.71,107.19 63.61,106.68 67.61,101.50 C71.79,96.09 73.06,94.92 74.08,95.55 C74.63,95.89 74.78,97.14 74.42,98.33 C73.64,100.86 73.85,100.68 77.03,96.00 C78.65,93.62 78.86,92.95 77.67,93.91 C74.60,96.37 73.39,93.72 75.81,89.82 C78.41,85.64 85.76,78.42 86.58,79.25 C87.57,80.23 86.04,82.00 84.19,82.02 C82.72,82.03 82.70,82.17 84.00,83.11 C85.25,84.01 85.20,84.09 83.70,83.61 C82.55,83.23 82.14,83.42 82.57,84.11 C82.93,84.70 82.24,86.53 81.03,88.17 C79.82,89.81 79.05,91.38 79.33,91.66 C79.60,91.94 82.20,88.64 85.10,84.33 C87.99,80.02 89.61,77.11 88.69,77.86 C87.26,79.03 86.93,78.98 86.34,77.45 C85.87,76.23 86.45,75.03 88.21,73.59 C89.62,72.44 91.07,70.49 91.45,69.25 C91.85,67.92 92.93,67.00 94.08,67.00 C95.94,67.00 96.01,67.72 95.69,85.04 C95.40,100.42 95.10,103.33 93.64,104.79 ZM 15.73 107.29 C15.08,107.19 14.51,107.07 14.01,106.87 C14.23,106.50 13.93,105.30 12.86,103.49 C10.84,100.07 10.89,97.00 12.97,97.00 C13.54,97.00 14.00,97.81 14.00,98.80 C14.00,101.99 16.14,103.01 22.45,102.83 L 28.50 102.65 L 22.00 102.08 C32.59,103.02 34.00,103.04 34.00,102.25 C34.00,101.30 27.16,92.24 22.07,86.25 C26.49,91.43 32.31,98.98 33.89,101.70 C35.54,104.53 35.17,102.17 33.39,98.40 C32.50,96.53 31.42,95.00 30.98,95.00 C30.54,95.00 28.80,92.91 27.11,90.36 C25.42,87.80 23.12,85.07 22.00,84.29 C20.88,83.50 20.27,82.37 20.64,81.78 C21.04,81.13 20.84,80.98 20.15,81.40 C19.45,81.84 19.00,81.44 19.00,80.39 C19.00,79.44 18.70,78.96 18.34,79.32 C17.98,79.69 17.12,79.51 16.43,78.94 C15.85,78.46 15.38,78.32 15.00,78.53 L 14.98 78.50 L 14.98 78.54 C14.06,79.08 13.73,81.75 13.91,86.77 C14.09,91.74 13.84,93.12 12.82,92.78 C11.87,92.46 11.42,89.57 11.21,82.49 C10.82,69.12 11.09,68.69 16.49,73.99 C18.92,76.38 20.64,78.82 20.30,79.42 C19.96,80.01 20.05,80.17 20.50,79.76 C20.95,79.35 22.02,79.58 22.89,80.26 C23.39,80.65 22.81,79.86 21.50,78.32 C21.63,78.46 21.76,78.60 21.89,78.75 C28.10,85.76 35.95,94.62 39.34,98.42 C40.70,99.95 41.96,101.44 42.98,102.72 C42.64,102.37 42.28,102.00 41.90,101.64 C39.32,99.19 38.74,98.83 40.47,100.76 C42.51,103.03 43.07,104.33 42.34,105.06 C41.76,105.64 36.18,106.33 29.93,106.60 C23.79,106.86 18.54,107.28 18.14,107.53 C17.17,107.47 16.35,107.39 15.73,107.29 ZM 12.80 48.95 C12.91,48.86 13.03,48.77 13.15,48.68 C14.28,47.82 14.91,45.51 15.15,41.31 C15.34,37.94 15.16,35.40 14.75,35.65 C14.34,35.91 13.99,37.10 13.99,38.31 C13.95,43.87 11.69,46.96 10.30,43.35 C9.00,39.95 11.98,32.88 17.24,26.91 C20.10,23.66 23.01,21.00 23.70,21.00 C24.39,21.00 25.75,19.76 26.73,18.25 C29.84,13.42 32.31,11.00 34.12,11.00 C36.49,11.00 37.52,12.86 35.56,13.61 C34.32,14.09 34.00,15.90 33.98,22.36 C33.97,31.34 33.58,32.45 29.97,33.89 L 27.50 34.87 L 28.51 34.90 C27.11,35.04 25.55,35.15 23.95,35.21 L 15.50 35.50 L 15.19 41.43 C14.98,45.56 14.38,47.75 13.19,48.65 C13.06,48.75 12.92,48.85 12.80,48.95 ZM 140.24 74.15 C136.57,73.09 130.90,68.00 129.40,64.41 C128.63,62.57 128.01,58.91 128.02,56.28 C128.06,42.85 141.66,35.07 154.51,41.11 C154.97,41.32 155.39,41.54 155.77,41.74 C155.50,41.86 155.56,42.47 155.80,43.74 C156.23,45.99 156.01,46.24 154.09,45.73 C152.27,45.26 152.09,45.41 153.07,46.58 C153.08,46.59 153.09,46.61 153.10,46.62 C152.86,46.45 152.61,46.26 152.34,46.05 C149.34,43.69 142.81,43.35 139.19,45.35 C135.40,47.45 133.01,52.02 133.01,57.18 C133.00,61.12 133.53,62.42 136.37,65.43 C139.28,68.52 140.36,69.00 144.33,69.00 C146.86,69.00 150.53,68.24 152.49,67.31 C154.45,66.37 155.36,65.98 156.11,66.15 C155.40,66.00 154.55,66.39 152.77,67.30 C149.95,68.75 149.83,68.95 151.91,68.74 C155.84,68.35 155.36,70.54 151.09,72.46 C148.23,73.75 145.78,74.09 142.31,73.67 C139.02,73.28 138.29,73.37 140.00,73.95 C142.19,74.70 144.66,74.94 147.13,74.72 C144.77,74.95 142.39,74.77 140.24,74.15 ZM 200.83 73.40 C199.30,72.94 197.98,72.27 196.86,71.45 C196.77,70.22 195.54,67.25 194.44,65.99 C192.74,64.03 193.61,57.17 195.97,54.04 C198.05,51.28 200.57,52.07 199.00,54.99 C197.47,57.87 197.80,58.20 200.00,56.00 C201.10,54.90 202.79,53.97 203.75,53.94 C204.98,53.89 204.77,53.58 203.02,52.89 C201.04,52.09 200.84,51.72 202.00,51.00 C203.41,50.13 203.25,49.47 202.22,49.40 C202.47,49.35 202.73,49.31 202.99,49.28 C204.48,49.07 205.93,49.13 207.29,49.42 C207.25,49.78 208.34,50.64 209.88,51.44 C214.63,53.90 216.70,59.90 213.80,62.80 C212.87,63.73 213.09,64.00 214.80,64.00 C216.12,64.00 216.82,63.15 217.00,61.87 L 217.00 64.00 L 208.00 64.00 C200.82,64.00 199.00,64.29 199.00,65.44 C199.00,68.98 206.11,71.20 209.88,68.84 C210.09,68.71 210.31,68.60 210.55,68.51 C210.49,68.88 210.73,69.50 211.20,70.54 C211.78,71.82 212.14,72.40 212.58,72.43 C211.25,73.24 209.55,73.96 208.00,74.29 C206.62,74.58 203.40,74.18 200.83,73.40 ZM 90.90 101.18 C91.44,100.18 91.93,94.89 92.00,89.43 C92.13,79.03 92.16,77.33 91.55,77.05 C91.42,76.99 91.26,77.00 91.06,77.00 C89.87,77.00 74.00,99.99 74.00,101.71 C74.00,102.65 76.14,103.00 81.96,103.00 C88.65,103.00 90.09,102.71 90.90,101.18 ZM 262.31 56.99 C261.97,59.25 262.35,59.07 266.47,55.03 C266.59,54.92 266.70,54.80 266.81,54.69 L 262.66 58.93 L 266.88 65.28 C264.70,62.10 263.00,59.89 263.00,60.28 C263.00,61.37 265.23,65.18 267.28,67.59 C268.99,69.62 268.76,73.00 266.91,73.00 C266.42,73.00 264.96,71.31 263.65,69.24 C259.69,62.96 258.70,62.54 255.08,65.59 C252.87,67.45 252.11,68.79 252.54,70.11 C252.99,71.55 252.64,72.00 251.06,72.00 C249.06,72.00 249.00,71.53 249.09,57.66 C249.19,43.18 249.75,40.11 252.02,41.51 C252.91,42.06 253.09,44.15 252.66,48.89 C252.32,52.56 252.48,56.17 253.01,57.00 C253.66,58.02 253.97,55.36 253.98,48.75 C253.99,45.29 253.99,43.06 253.88,41.62 C254.00,43.10 254.00,45.40 254.00,49.00 C254.00,55.14 254.39,59.00 255.02,59.00 C255.58,59.00 258.32,56.75 261.10,54.00 C262.84,52.27 264.41,50.97 265.72,50.12 C265.75,50.15 265.77,50.17 265.80,50.20 C267.65,52.05 267.23,53.83 264.84,54.18 C263.43,54.39 262.56,55.36 262.31,56.99 ZM 228.91 68.72 C229.79,69.39 231.85,69.88 233.50,69.82 L 236.50 69.70 L 233.50 69.27 C232.97,69.19 232.39,69.05 231.82,68.86 C233.68,69.28 235.98,68.97 238.49,67.82 C240.60,66.86 241.36,66.93 242.62,68.19 C241.41,66.98 240.60,66.89 238.79,67.76 C236.99,68.63 236.87,68.88 238.25,68.93 C240.82,69.03 240.38,71.87 237.69,72.54 C234.06,73.45 226.93,72.25 224.87,70.38 C223.84,69.45 222.51,66.91 221.93,64.74 C221.55,63.33 221.14,62.16 220.83,61.58 C221.06,60.40 221.60,59.05 222.52,57.16 C225.44,51.11 230.87,48.20 236.36,49.26 C236.53,49.52 237.21,50.01 238.21,50.55 C241.47,52.32 241.01,55.39 237.63,54.49 C235.80,54.00 235.84,54.11 237.94,55.35 C239.56,56.29 240.53,56.47 241.66,55.94 C240.57,56.54 239.69,56.37 237.82,55.41 C232.68,52.75 228.40,54.48 227.28,59.23 C227.47,58.31 227.76,57.44 228.16,56.68 C229.20,54.74 229.15,54.64 227.73,55.82 C224.15,58.77 224.77,65.54 228.91,68.72 ZM 75.06 14.13 C80.92,14.13 85.39,13.94 85.68,13.65 C86.04,13.29 75.71,13.00 62.73,13.00 C41.75,13.00 35.09,12.34 39.24,10.66 C39.37,10.61 39.43,10.57 39.43,10.52 L 62.94 10.59 C80.35,10.64 88.87,10.71 93.04,11.45 C95.25,12.55 96.72,14.61 95.67,15.66 C95.25,16.08 94.04,15.88 92.97,15.21 C90.48,13.66 89.25,13.65 90.80,15.20 C91.00,15.40 91.19,15.68 91.35,16.02 C91.17,15.68 90.97,15.40 90.75,15.22 C90.07,14.67 83.46,14.29 75.06,14.13 ZM 168.49 70.04 C167.78,72.26 166.43,72.61 165.78,70.75 C165.53,70.06 165.45,63.20 165.59,55.50 C165.79,44.67 166.15,41.50 167.17,41.50 C168.07,41.50 168.60,43.21 168.80,46.75 C169.02,50.53 169.51,52.00 170.55,52.00 C172.53,52.00 172.37,53.25 169.89,57.46 C168.31,60.15 167.95,61.91 168.45,64.56 C168.81,66.50 168.83,68.97 168.49,70.04 ZM 174.07 54.78 C175.96,54.04 176.12,53.68 174.97,52.92 C173.72,52.11 173.80,51.72 175.50,50.36 L 176.95 49.19 C178.17,49.07 179.36,49.07 180.41,49.21 C180.32,49.51 180.97,50.37 182.35,52.00 C186.26,56.65 187.52,71.50 184.00,71.50 C182.84,71.50 182.43,69.92 182.20,64.50 C182.03,60.65 181.58,57.18 181.20,56.80 C180.96,56.56 180.81,57.85 180.76,60.02 C180.21,54.96 178.61,53.64 175.11,54.48 C174.74,54.57 174.39,54.67 174.07,54.78 ZM 211.35 59.02 C212.79,57.63 208.21,54.00 205.00,54.00 C201.81,54.00 197.20,57.63 198.65,59.00 C200.74,60.98 209.32,60.99 211.35,59.02 ZM 358.33 63.30 C356.77,63.54 359.77,63.69 365.00,63.62 L 374.50 63.50 L 364.75 63.79 C359.39,63.94 355.00,64.31 355.00,64.60 C355.00,64.80 355.21,65.36 355.53,66.04 C354.62,64.76 354.00,64.45 353.73,65.17 C353.45,65.93 352.93,65.33 352.51,63.75 C352.11,62.24 351.35,61.00 350.82,61.00 C350.75,61.00 350.68,61.02 350.62,61.05 C350.69,59.96 350.89,58.89 351.23,57.86 C351.11,58.34 351.05,58.79 351.08,59.20 C351.14,60.21 351.27,60.22 351.66,59.25 C351.94,58.56 352.66,58.00 353.27,58.00 C354.00,58.00 355.31,57.09 356.50,55.97 C353.39,59.17 354.84,60.00 362.50,60.00 C366.06,60.00 368.29,59.82 369.33,59.44 C368.60,59.84 367.19,60.00 365.03,60.00 C361.14,60.00 360.18,60.31 360.61,61.43 C360.99,62.40 360.27,62.99 358.33,63.30 ZM 340.66 50.92 C341.73,52.16 343.41,52.88 344.78,52.97 C344.54,52.99 344.28,53.00 344.00,53.00 L 341.00 53.00 L 341.02 61.25 C341.03,67.14 341.32,70.10 342.16,71.04 C341.32,70.10 341.03,67.14 341.02,61.28 L 341.02 61.25 C341.00,53.88 340.82,53.13 339.25,53.71 C338.29,54.06 337.15,54.84 336.73,55.43 C336.50,55.75 336.38,56.76 336.36,58.13 C336.07,54.32 335.62,53.48 334.30,52.92 C334.72,52.75 335.00,52.26 335.00,51.50 C335.00,50.74 334.64,50.11 334.18,50.01 C334.28,50.00 334.39,50.00 334.50,50.00 C335.31,50.00 335.99,48.71 336.18,46.81 C335.95,49.30 336.21,49.86 337.38,49.41 C338.22,49.08 339.65,49.74 340.66,50.92 ZM 367.14 71.44 C368.63,72.22 369.99,72.35 371.18,71.83 C370.89,72.02 370.55,72.21 370.16,72.41 C367.39,73.85 364.02,74.32 360.98,73.88 C362.66,73.79 362.89,73.61 361.68,73.30 C360.60,73.02 360.08,72.24 360.40,71.41 C360.59,70.90 360.51,70.47 360.22,70.23 C361.60,70.59 363.22,70.62 365.00,70.32 ZM 321.48 68.75 C322.63,67.75 323.64,66.16 324.22,64.50 C323.76,65.96 323.06,67.38 322.42,68.09 C320.27,70.46 321.12,73.11 323.47,72.24 C323.33,72.33 323.18,72.41 323.03,72.48 C322.14,72.95 321.11,73.29 320.01,73.53 C319.61,73.47 318.85,73.39 317.75,73.27 C315.69,73.06 314.00,72.43 314.00,71.89 C314.00,71.44 313.16,70.33 312.01,69.23 C314.61,71.22 318.20,71.60 321.48,68.75 ZM 367.81 55.30 C365.02,52.35 360.38,52.29 357.31,55.17 C357.24,55.25 357.17,55.31 357.09,55.38 C358.16,54.27 359.00,53.08 359.00,52.41 C359.00,50.70 361.14,50.08 363.27,51.18 C364.24,51.68 365.43,51.85 365.91,51.56 C366.38,51.26 367.39,51.78 368.14,52.70 C369.34,54.18 369.27,54.29 367.52,53.63 C365.70,52.95 365.72,53.08 367.77,55.26 C367.79,55.27 367.80,55.29 367.81,55.30 ZM 281.43 55.33 C280.62,57.44 279.12,57.48 278.32,55.40 C277.65,53.64 280.01,51.61 281.27,52.87 C281.71,53.31 281.78,54.42 281.43,55.33 ZM 9.55 87.85 C9.94,94.31 10.51,100.41 11.10,103.24 C10.28,100.50 9.89,95.86 9.55,87.85 ZM 33.17 10.50 C31.42,11.20 29.58,12.96 25.43,17.25 C12.83,30.25 9.89,33.38 9.21,36.96 C9.88,33.40 12.80,30.29 25.18,17.50 L 31.96 10.50 L 33.17 10.50 ZM 374.15 60.50 C373.61,55.96 371.37,52.57 368.22,50.79 C371.65,52.43 373.57,55.60 374.15,60.50 ZM 170.00 65.20 C170.06,57.77 170.64,56.18 173.52,55.00 C170.84,56.18 170.07,58.65 170.00,65.20 ZM 195.06 53.43 C192.08,57.13 191.19,62.56 193.23,67.07 C191.14,62.68 191.84,57.17 195.06,53.43 ZM 309.76 72.43 C311.27,73.25 314.52,73.86 317.00,73.79 C317.74,73.77 318.35,73.75 318.84,73.74 C315.68,74.17 312.17,73.74 309.76,72.43 ZM 96.74 16.73 C97.09,15.22 96.71,13.61 95.80,12.36 C96.89,13.06 97.00,14.06 97.00,15.47 C97.00,15.85 96.90,16.28 96.74,16.73 ZM 213.22 52.49 C215.04,54.22 216.32,56.51 216.80,59.13 C216.28,56.92 214.99,54.39 213.22,52.49 ZM 214.09 68.63 C214.64,68.93 215.00,69.38 215.00,69.95 C215.00,70.36 214.62,70.88 214.00,71.41 C214.91,70.36 214.87,69.29 214.09,68.63 ZM 328.40 65.68 C329.26,62.30 328.90,58.35 327.05,55.31 C329.00,58.52 329.36,62.35 328.40,65.68 ZM 322.20 56.05 C318.34,52.19 314.28,52.01 310.95,55.56 C310.65,55.87 310.38,56.20 310.14,56.52 C311.50,54.45 313.62,53.00 316.25,53.00 C318.15,53.00 320.20,54.05 322.20,56.05 ZM 229.58 67.86 C229.26,67.66 228.97,67.46 228.75,67.26 C228.02,66.61 227.52,65.48 227.25,64.15 C227.64,65.77 228.45,67.03 229.58,67.86 ZM 33.44 33.98 C34.22,33.18 34.63,31.78 34.83,29.44 C34.63,31.94 34.26,33.37 33.70,33.83 C33.64,33.88 33.55,33.93 33.44,33.98 ZM 181.14 74.00 L 181.00 74.00 L 181.00 70.04 L 181.14 74.00 ZM 92.32 20.65 C92.72,21.22 93.55,20.79 95.07,19.44 C94.26,20.35 93.36,21.00 92.67,21.00 C92.54,21.00 92.42,20.87 92.32,20.65 ZM 338.12 72.65 C337.72,72.16 337.29,70.05 336.98,67.30 C337.33,69.97 337.78,72.18 338.24,72.75 C338.27,72.78 338.30,72.82 338.34,72.85 C338.25,72.78 338.18,72.72 338.12,72.65 ZM 370.61 69.31 C371.94,69.32 372.66,69.69 372.59,70.29 C372.45,69.79 371.71,69.41 370.61,69.31 ZM 268.35 49.01 C268.42,49.00 268.50,49.00 268.57,49.00 C269.80,49.00 270.54,49.10 270.74,49.48 C270.32,49.24 269.43,49.06 268.35,49.01 ZM 243.68 53.21 C243.06,52.54 241.62,51.52 240.17,50.66 C240.37,50.76 240.56,50.87 240.75,50.99 C242.37,51.98 243.32,52.64 243.68,53.21 ZM 308.82 64.65 C309.25,65.99 309.97,67.21 310.90,68.21 C309.86,67.20 309.18,65.97 308.82,64.65 ZM 369.88 58.31 C369.60,57.56 368.83,56.40 367.91,55.41 C369.09,56.67 369.75,57.62 369.88,58.31 ZM 221.05 65.23 C221.74,67.65 223.18,69.80 225.07,71.40 C223.17,69.81 221.73,67.68 221.08,65.34 C221.07,65.30 221.06,65.26 221.05,65.23 ZM 35.00 15.27 L 35.00 15.26 L 45.75 14.58 C46.32,14.54 46.95,14.51 47.61,14.47 C46.79,14.52 46.00,14.56 45.25,14.61 L 35.00 15.27 ZM 173.74 49.78 C173.01,50.02 172.27,50.28 171.75,50.49 C171.07,50.77 170.66,50.82 170.40,50.33 C170.66,50.81 171.07,50.75 171.75,50.47 C172.37,50.20 173.04,49.97 173.74,49.78 ZM 359.47 70.00 L 359.45 70.00 C359.12,70.00 358.67,69.77 358.18,69.37 C358.58,69.62 359.01,69.83 359.47,70.00 ZM 269.44 73.92 C270.37,73.80 271.12,73.55 271.31,73.27 C271.31,73.33 271.30,73.37 271.27,73.40 C271.05,73.62 270.32,73.82 269.44,73.92 ZM 346.83 51.01 C347.12,51.39 347.14,51.79 346.88,52.13 C346.96,51.97 347.00,51.78 347.00,51.56 C347.00,51.37 346.94,51.18 346.83,51.01 ZM 186.19 55.30 C186.75,57.67 187.00,60.83 187.00,64.95 C187.00,60.89 186.74,57.70 186.19,55.30 ZM 158.86 45.11 C158.77,45.60 158.41,46.06 157.78,46.51 C158.37,46.08 158.73,45.60 158.86,45.11 ZM 332.55 50.99 C332.62,50.72 332.82,50.48 333.14,50.30 C332.88,50.48 332.68,50.72 332.55,50.99 ZM 350.91 64.69 C351.02,65.08 351.13,65.46 351.24,65.83 C351.11,65.46 351.00,65.08 350.91,64.69 ZM 266.32 73.61 C266.88,73.88 267.47,73.99 268.15,74.00 C268.13,74.00 268.11,74.00 268.08,74.00 C267.44,74.00 266.87,73.88 266.32,73.61 ZM 128.94 10.61 C128.98,10.63 129.00,10.65 129.00,10.67 C129.00,10.70 128.99,10.73 128.98,10.76 C128.97,10.71 128.96,10.66 128.94,10.61 ZM 9.82 66.08 C9.74,66.03 9.68,66.01 9.63,66.00 C9.64,66.00 9.64,66.00 9.65,66.00 C9.68,66.00 9.74,66.03 9.82,66.08 ZM 9.63 47.75 C9.91,48.79 10.16,49.43 10.51,49.70 C10.16,49.43 9.91,48.79 9.63,47.75 ZM 355.11 71.44 C354.87,71.24 354.65,71.04 354.44,70.83 C354.66,71.04 354.88,71.25 355.11,71.44 ZM 167.67 74.00 C168.07,74.00 168.41,73.99 168.69,73.93 C168.41,73.99 168.07,74.00 167.67,74.00 ZM 156.99 47.00 C156.98,47.01 156.98,47.01 156.97,47.02 C156.96,47.02 156.95,47.03 156.94,47.03 C156.96,47.02 156.97,47.01 156.99,47.00 Z" fill="rgba(18,181,129,1)"/>
<path d="M 96.00 63.94 C96.00,64.52 96.22,65.00 96.50,65.00 C96.60,65.00 96.70,64.83 96.78,64.54 C96.91,67.53 96.92,72.68 96.94,81.14 C96.98,96.52 97.44,102.93 94.49,105.66 C92.01,107.94 87.13,107.63 77.59,107.84 C71.93,107.96 66.95,107.93 64.22,107.78 C64.52,107.53 64.59,107.08 64.36,106.51 C64.10,105.82 63.60,105.52 63.13,105.55 C64.36,103.72 66.47,100.79 68.85,97.62 C72.62,92.60 79.62,83.10 84.40,76.50 C88.27,71.16 92.12,65.87 94.01,63.32 C93.99,63.76 94.30,63.93 95.00,63.50 C95.55,63.16 96.00,63.36 96.00,63.94 ZM 93.64 104.79 C95.10,103.33 95.40,100.42 95.69,85.04 C96.01,67.72 95.94,67.00 94.08,67.00 C92.93,67.00 91.85,67.92 91.45,69.25 C91.07,70.49 89.62,72.44 88.21,73.59 C86.45,75.03 85.87,76.23 86.34,77.45 C86.93,78.98 87.26,79.03 88.69,77.86 C89.61,77.11 87.99,80.02 85.10,84.33 C82.20,88.64 79.60,91.94 79.33,91.66 C79.05,91.38 79.82,89.81 81.03,88.17 C82.24,86.53 82.93,84.70 82.57,84.11 C82.14,83.42 82.55,83.23 83.70,83.61 C85.20,84.09 85.25,84.01 84.00,83.11 C82.70,82.17 82.72,82.03 84.19,82.02 C86.04,82.00 87.57,80.23 86.58,79.25 C85.76,78.42 78.41,85.64 75.81,89.82 C73.39,93.72 74.60,96.37 77.67,93.91 C78.86,92.95 78.65,93.62 77.03,96.00 C73.85,100.68 73.64,100.86 74.42,98.33 C74.78,97.14 74.63,95.89 74.08,95.55 C73.06,94.92 71.79,96.09 67.61,101.50 C63.61,106.68 64.71,107.19 79.08,106.83 C89.58,106.56 92.25,106.19 93.64,104.79 ZM 309.76 72.43 C304.19,69.41 302.36,61.20 305.95,55.31 C308.40,51.29 310.70,50.07 316.19,49.86 C321.54,49.66 324.51,51.15 327.05,55.31 C330.42,60.84 328.84,69.41 323.97,72.01 C321.25,73.47 320.12,70.63 322.42,68.09 C323.34,67.08 324.35,64.64 324.67,62.67 C325.16,59.61 324.80,58.65 322.20,56.05 C320.20,54.05 318.15,53.00 316.25,53.00 C309.11,53.00 305.67,63.74 311.27,68.56 C312.77,69.85 314.00,71.35 314.00,71.89 C314.00,72.43 315.69,73.06 317.75,73.27 C321.34,73.65 321.30,73.67 317.00,73.79 C314.52,73.86 311.27,73.25 309.76,72.43 ZM 164.67 73.33 C164.30,72.97 164.00,65.12 164.00,55.90 C164.00,40.04 164.11,39.10 165.99,38.50 C169.22,37.48 170.00,38.77 170.00,45.17 C170.00,50.53 170.20,51.13 171.75,50.49 C172.71,50.10 174.40,49.54 175.50,49.26 L 177.50 48.75 L 175.50 50.36 C173.80,51.72 173.72,52.11 174.97,52.92 C176.16,53.71 175.95,54.07 173.85,54.87 C170.50,56.14 170.00,57.66 170.00,66.58 C170.00,73.69 169.90,74.00 167.67,74.00 C166.38,74.00 165.03,73.70 164.67,73.33 ZM 277.00 62.47 C277.00,52.82 277.26,50.84 278.60,50.32 C279.48,49.99 280.59,50.33 281.06,51.10 C281.74,52.20 282.17,52.23 283.16,51.24 C283.84,50.56 286.54,50.00 289.16,50.00 C296.72,50.00 298.00,52.06 298.00,64.26 C298.00,73.14 297.82,74.11 296.25,73.81 C294.78,73.53 294.45,72.15 294.21,65.09 C293.99,59.00 293.44,56.11 292.18,54.51 C290.09,51.84 286.57,52.11 283.29,55.20 C281.26,57.10 281.00,58.29 281.00,65.67 C281.00,73.33 280.84,74.00 279.00,74.00 C277.12,74.00 277.00,73.33 277.00,62.47 ZM 9.63 47.75 C9.30,46.51 9.02,43.12 9.01,40.21 C9.00,34.36 9.40,33.80 25.43,17.25 C31.92,10.54 32.75,10.01 36.47,10.08 C38.69,10.12 39.93,10.39 39.24,10.66 C35.09,12.34 41.75,13.00 62.73,13.00 C75.71,13.00 86.04,13.29 85.68,13.65 C85.32,14.01 78.61,14.21 70.76,14.10 C62.92,13.99 51.66,14.20 45.75,14.58 L 35.00 15.26 L 35.00 23.93 C35.00,33.32 34.23,35.04 30.05,34.94 L 27.50 34.87 L 29.97 33.89 C33.58,32.45 33.97,31.34 33.98,22.36 C34.00,15.90 34.32,14.09 35.56,13.61 C37.52,12.86 36.49,11.00 34.12,11.00 C32.31,11.00 29.84,13.42 26.73,18.25 C25.75,19.76 24.39,21.00 23.70,21.00 C23.01,21.00 20.10,23.66 17.24,26.91 C11.98,32.88 9.00,39.95 10.30,43.35 C11.69,46.96 13.95,43.87 13.99,38.31 C13.99,37.10 14.34,35.91 14.75,35.65 C15.16,35.40 15.34,37.94 15.15,41.31 C14.91,45.51 14.28,47.82 13.15,48.68 C10.83,50.45 10.32,50.31 9.63,47.75 ZM 11.57 104.75 C10.10,102.50 8.56,75.81 9.13,68.08 C9.35,68.50 9.84,68.62 10.49,68.36 C11.01,68.16 11.37,67.83 11.49,67.48 C12.99,68.89 15.20,71.18 17.50,73.75 C21.33,78.01 23.76,80.94 22.89,80.26 C22.02,79.58 20.95,79.35 20.50,79.76 C20.05,80.17 19.96,80.01 20.30,79.42 C20.64,78.82 18.92,76.38 16.49,73.99 C11.09,68.69 10.82,69.12 11.21,82.49 C11.42,89.57 11.87,92.46 12.82,92.78 C13.84,93.12 14.09,91.74 13.91,86.77 C13.73,81.75 14.06,79.08 14.98,78.54 L 14.98 78.50 L 15.00 78.53 C15.38,78.32 15.85,78.46 16.43,78.94 C17.12,79.51 17.98,79.69 18.34,79.32 C18.70,78.96 19.00,79.44 19.00,80.39 C19.00,81.44 19.45,81.84 20.15,81.40 C20.84,80.98 21.04,81.13 20.64,81.78 C20.27,82.37 20.88,83.50 22.00,84.29 C23.12,85.07 25.42,87.80 27.11,90.36 C28.80,92.91 30.54,95.00 30.98,95.00 C31.42,95.00 32.50,96.53 33.39,98.40 C35.17,102.17 35.54,104.53 33.89,101.70 C31.93,98.32 23.43,87.51 19.20,83.00 L 15.00 78.53 C15.00,78.53 14.99,78.53 14.98,78.54 L 15.24 90.00 L 15.50 101.50 L 28.50 102.65 L 22.45 102.83 C16.14,103.01 14.00,101.99 14.00,98.80 C14.00,97.81 13.54,97.00 12.97,97.00 C10.89,97.00 10.84,100.07 12.86,103.49 C15.11,107.31 13.98,108.42 11.57,104.75 ZM 358.33 63.30 C360.27,62.99 360.99,62.40 360.61,61.43 C360.18,60.31 361.14,60.00 365.03,60.00 C370.61,60.00 371.23,58.94 367.77,55.26 C365.72,53.08 365.70,52.95 367.52,53.63 C369.27,54.29 369.34,54.18 368.14,52.70 C367.39,51.78 366.38,51.26 365.91,51.56 C365.43,51.85 364.24,51.68 363.27,51.18 C361.14,50.08 359.00,50.70 359.00,52.41 C359.00,53.91 354.81,58.00 353.27,58.00 C352.66,58.00 351.94,58.56 351.66,59.25 C351.27,60.22 351.14,60.21 351.08,59.20 C350.91,56.46 354.27,51.79 357.32,50.52 C365.51,47.11 373.10,51.61 374.15,60.50 L 374.50 63.50 L 365.00 63.62 C359.77,63.69 356.77,63.54 358.33,63.30 ZM 248.61 72.42 C247.82,70.36 247.82,42.64 248.61,40.58 C248.94,39.71 250.29,39.00 251.61,39.00 C253.97,39.00 254.00,39.13 253.98,48.75 C253.97,55.36 253.66,58.02 253.01,57.00 C252.48,56.17 252.32,52.56 252.66,48.89 C253.09,44.15 252.91,42.06 252.02,41.51 C249.75,40.11 249.19,43.18 249.09,57.66 C249.00,71.53 249.06,72.00 251.06,72.00 C252.64,72.00 252.99,71.55 252.54,70.11 C252.11,68.79 252.87,67.45 255.08,65.59 C258.70,62.54 259.69,62.96 263.65,69.24 C264.96,71.31 266.42,73.00 266.91,73.00 C268.76,73.00 268.99,69.62 267.28,67.59 C265.23,65.18 263.00,61.37 263.00,60.28 C263.00,59.86 264.97,62.45 267.38,66.01 C269.79,69.58 271.56,72.84 271.32,73.25 C271.08,73.66 269.67,74.00 268.19,74.00 C266.09,74.00 264.88,73.01 262.66,69.50 C261.10,67.03 259.43,64.76 258.95,64.47 C257.36,63.49 254.00,67.93 254.00,71.00 C254.00,73.50 253.60,74.00 251.61,74.00 C250.29,74.00 248.94,73.29 248.61,72.42 ZM 168.49 70.04 C168.83,68.97 168.81,66.50 168.45,64.56 C167.95,61.91 168.31,60.15 169.89,57.46 C172.37,53.25 172.53,52.00 170.55,52.00 C169.51,52.00 169.02,50.53 168.80,46.75 C168.60,43.21 168.07,41.50 167.17,41.50 C166.15,41.50 165.79,44.67 165.59,55.50 C165.45,63.20 165.53,70.06 165.78,70.75 C166.43,72.61 167.78,72.26 168.49,70.04 ZM 338.24 72.75 C336.96,71.15 335.71,56.85 336.73,55.43 C337.15,54.84 338.29,54.06 339.25,53.71 C340.83,53.13 341.00,53.88 341.02,61.28 C341.03,70.27 341.70,72.43 344.03,70.96 C346.26,69.55 347.00,69.80 347.00,72.00 C347.00,73.66 346.33,74.00 343.12,74.00 C340.99,74.00 338.79,73.44 338.24,72.75 ZM 180.82 65.05 C180.64,60.12 180.81,56.41 181.20,56.80 C181.58,57.18 182.03,60.65 182.20,64.50 C182.43,69.92 182.84,71.50 184.00,71.50 C187.52,71.50 186.26,56.65 182.35,52.00 C179.73,48.89 179.74,48.58 182.46,49.62 C185.60,50.83 187.00,55.54 187.00,64.95 L 187.00 74.00 L 181.14 74.00 ZM 193.96 68.43 C189.91,61.88 192.88,52.57 199.89,49.87 C202.62,48.81 204.18,49.66 202.00,51.00 C200.84,51.72 201.04,52.09 203.02,52.89 C204.77,53.58 204.98,53.89 203.75,53.94 C202.79,53.97 201.10,54.90 200.00,56.00 C197.80,58.20 197.47,57.87 199.00,54.99 C200.57,52.07 198.05,51.28 195.97,54.04 C193.61,57.17 192.74,64.03 194.44,65.99 C195.85,67.60 197.46,72.00 196.65,72.00 C196.38,72.00 195.17,70.40 193.96,68.43 ZM 355.13 71.46 C353.47,70.06 351.86,68.03 351.55,66.96 C351.25,65.88 350.74,64.10 350.43,63.00 C350.12,61.90 350.30,61.00 350.82,61.00 C351.35,61.00 352.11,62.24 352.51,63.75 C352.93,65.33 353.45,65.93 353.73,65.17 C354.05,64.30 354.88,64.92 356.10,66.92 C357.13,68.61 358.64,70.00 359.45,70.00 C360.32,70.00 360.71,70.59 360.40,71.41 C360.08,72.24 360.60,73.02 361.68,73.30 C362.92,73.62 362.65,73.80 360.83,73.88 C359.29,73.95 356.87,72.92 355.13,71.46 ZM 230.18 74.01 C225.83,72.98 222.23,69.49 221.03,65.13 C220.49,63.20 220.24,61.43 220.46,61.21 C220.69,60.98 221.35,62.57 221.93,64.74 C222.51,66.91 223.84,69.45 224.87,70.38 C226.93,72.25 234.06,73.45 237.69,72.54 C240.38,71.87 240.82,69.03 238.25,68.93 C236.87,68.88 236.99,68.63 238.79,67.76 C240.60,66.89 241.41,66.98 242.62,68.19 C244.00,69.58 243.89,69.94 241.44,71.87 C239.95,73.04 238.15,74.00 237.45,74.00 C236.74,74.00 235.56,74.18 234.83,74.40 C234.10,74.61 232.01,74.44 230.18,74.01 ZM 18.12 107.54 C18.37,107.29 23.69,106.87 29.93,106.60 C36.18,106.33 41.76,105.64 42.34,105.06 C43.07,104.33 42.51,103.03 40.47,100.76 C38.74,98.83 39.32,99.19 41.90,101.64 C44.33,103.95 45.95,106.27 45.57,106.89 C45.12,107.62 40.16,108.00 31.27,108.00 C23.79,108.00 17.87,107.79 18.12,107.54 ZM 140.00 73.95 C138.29,73.37 139.02,73.28 142.31,73.67 C145.78,74.09 148.23,73.75 151.09,72.46 C155.36,70.54 155.84,68.35 151.91,68.74 C149.83,68.95 149.95,68.75 152.77,67.30 C155.85,65.71 156.15,65.72 157.77,67.36 C159.41,69.00 159.37,69.20 157.00,71.04 C152.45,74.57 145.39,75.78 140.00,73.95 ZM 340.66 50.92 C339.65,49.74 338.22,49.08 337.38,49.41 C336.20,49.86 335.94,49.29 336.19,46.75 C336.63,42.13 339.75,41.69 340.18,46.19 C340.46,49.11 340.88,49.54 343.75,49.81 C345.76,50.01 347.00,50.67 347.00,51.56 C347.00,53.74 342.70,53.30 340.66,50.92 ZM 213.80 62.80 C216.70,59.90 214.63,53.90 209.88,51.44 C208.19,50.57 207.05,49.62 207.34,49.33 C207.63,49.04 209.24,49.62 210.91,50.61 C216.43,53.87 219.37,64.00 214.80,64.00 C213.09,64.00 212.87,63.73 213.80,62.80 ZM 92.00 18.70 C92.00,17.43 91.46,15.86 90.80,15.20 C89.25,13.65 90.48,13.66 92.97,15.21 C94.04,15.88 95.25,16.08 95.67,15.66 C96.96,14.37 94.43,11.53 91.39,10.87 C88.56,10.25 88.55,10.23 91.10,10.12 C96.14,9.89 98.84,16.02 95.17,19.35 C94.94,19.56 94.72,19.75 94.52,19.92 C94.63,19.46 94.22,18.91 93.49,18.64 C92.67,18.32 92.11,18.58 92.01,19.30 C92.00,19.12 92.00,18.92 92.00,18.70 ZM 228.91 68.72 C224.77,65.54 224.15,58.77 227.73,55.82 C229.15,54.64 229.20,54.74 228.16,56.68 C226.43,59.94 226.73,65.45 228.75,67.26 C229.71,68.13 231.85,69.03 233.50,69.27 L 236.50 69.70 L 233.50 69.82 C231.85,69.88 229.79,69.39 228.91,68.72 ZM 237.94 55.35 C235.84,54.11 235.80,54.00 237.63,54.49 C241.01,55.39 241.47,52.32 238.21,50.55 C236.72,49.74 235.95,49.06 236.50,49.04 C237.91,48.99 244.00,52.81 244.00,53.74 C244.00,54.17 243.19,55.03 242.19,55.65 C240.81,56.51 239.81,56.44 237.94,55.35 ZM 262.31 56.99 C262.56,55.36 263.43,54.39 264.84,54.18 C267.23,53.83 267.65,52.05 265.80,50.20 C264.87,49.27 265.31,49.00 267.80,49.00 C269.56,49.00 271.00,49.36 271.00,49.79 C271.00,49.83 270.98,49.89 270.95,49.96 C270.65,49.41 269.51,49.06 267.75,49.14 C265.40,49.23 265.12,49.39 266.75,49.71 C267.99,49.94 269.00,50.58 269.00,51.13 C269.00,51.56 269.29,51.76 269.68,51.65 C268.86,52.60 267.72,53.80 266.47,55.03 C262.35,59.07 261.97,59.25 262.31,56.99 ZM 153.07 46.58 C152.09,45.41 152.27,45.26 154.09,45.73 C156.01,46.24 156.23,45.99 155.80,43.74 C155.36,41.46 155.51,41.30 157.16,42.33 C159.54,43.82 159.50,45.66 157.07,46.96 C154.59,48.29 154.47,48.28 153.07,46.58 ZM 367.14 71.44 L 364.78 70.21 L 367.99 69.50 C371.78,68.67 374.23,70.31 371.36,71.75 C370.13,72.36 368.70,72.26 367.14,71.44 ZM 211.20 70.54 C210.18,68.30 210.27,68.00 211.96,68.00 C214.59,68.00 215.54,69.89 213.80,71.63 C212.54,72.89 212.21,72.75 211.20,70.54 ZM 281.43 55.33 C281.78,54.42 281.71,53.31 281.27,52.87 C280.01,51.61 277.65,53.64 278.32,55.40 C279.12,57.48 280.62,57.44 281.43,55.33 ZM 332.69 52.36 C331.89,51.56 332.80,50.00 334.06,50.00 C334.58,50.00 335.00,50.67 335.00,51.50 C335.00,53.05 333.82,53.49 332.69,52.36 ZM 9.81 66.07 C9.65,66.12 9.50,66.22 9.38,66.35 C9.45,66.12 9.53,66.00 9.62,66.00 C9.66,66.00 9.72,66.02 9.81,66.07 ZM 62.00 107.46 C62.00,107.43 62.02,107.37 62.05,107.30 C62.09,107.40 62.16,107.49 62.25,107.58 C62.08,107.54 62.00,107.50 62.00,107.46 ZM 92.70 20.89 C92.46,20.86 92.30,20.69 92.19,20.38 C92.31,20.62 92.49,20.79 92.70,20.89 Z" fill="rgba(26,169,128,1)"/>
<path d="M 62.00 107.06 C62.00,105.38 63.77,104.97 64.36,106.51 C64.71,107.41 64.36,108.00 63.47,108.00 C62.66,108.00 62.00,107.58 62.00,107.06 ZM 9.00 67.47 C9.00,65.85 10.56,65.48 11.44,66.90 C11.74,67.39 11.32,68.05 10.49,68.36 C9.59,68.71 9.00,68.36 9.00,67.47 ZM 96.00 63.94 C96.00,63.36 95.55,63.16 95.00,63.50 C93.42,64.48 93.84,62.38 95.50,61.00 C96.77,59.95 97.00,60.16 97.00,62.38 C97.00,63.82 96.78,65.00 96.50,65.00 C96.22,65.00 96.00,64.52 96.00,63.94 ZM 269.00 51.13 C269.00,50.58 267.99,49.94 266.75,49.71 C265.12,49.39 265.40,49.23 267.75,49.14 C270.89,49.00 272.06,50.23 270.00,51.50 C269.45,51.84 269.00,51.67 269.00,51.13 ZM 92.00 19.53 C92.00,18.64 92.59,18.29 93.49,18.64 C94.32,18.95 94.74,19.61 94.44,20.10 C93.56,21.52 92.00,21.15 92.00,19.53 ZM 127.00 11.56 C127.00,10.70 127.45,10.00 128.00,10.00 C128.55,10.00 129.00,10.42 129.00,10.94 C129.00,11.46 128.55,12.16 128.00,12.50 C127.45,12.84 127.00,12.42 127.00,11.56 Z" fill="rgba(40,154,125,1)"/>
</g>
</svg>